<svg width="149" height="56" viewBox="0 0 149 56" fill="none" xmlns="http://www.w3.org/2000/svg">
<path id="IMAX" d="M12.288 51.984C11.9893 51.5147 11.3067 51.216 10.24 51.088C9.216 50.96 7.95733 50.9387 6.464 51.024C5.86667 51.1093 5.29067 51.0667 4.736 50.896C4.18133 50.768 3.73333 50.5333 3.392 50.192C3.09333 49.8933 2.98667 49.5733 3.072 49.232C3.11467 48.72 3.54133 48.3147 4.352 48.016C5.20533 47.7173 6.54933 47.5467 8.384 47.504L11.776 47.44L12.416 46.16C12.5867 45.6907 12.8 45.0293 13.056 44.176C13.312 43.3227 13.5893 42.4053 13.888 41.424C14.0587 40.8267 14.3147 40.016 14.656 38.992C14.9973 37.968 15.36 36.88 15.744 35.728C16.128 34.576 16.4693 33.552 16.768 32.656C17.0667 31.7173 17.2587 31.056 17.344 30.672C17.5147 30.288 17.7493 29.648 18.048 28.752C18.3467 27.8133 18.624 26.8747 18.88 25.936C19.1787 24.9547 19.3707 24.2507 19.456 23.824C20.5653 20.4533 21.2907 18.064 21.632 16.656C21.9733 15.2053 22.0587 14.4587 21.888 14.416C21.7173 14.416 21.2907 14.4373 20.608 14.48C19.968 14.5227 19.2427 14.5867 18.432 14.672C17.664 14.7147 16.96 14.7787 16.32 14.864C15.7227 14.9493 15.36 15.0347 15.232 15.12C15.0187 15.4187 14.656 15.4827 14.144 15.312C13.632 15.1413 13.312 14.8427 13.184 14.416C13.1413 14.032 13.12 13.7333 13.12 13.52C13.1627 13.3067 13.2907 13.136 13.504 13.008C13.8027 12.752 14.3787 12.4747 15.232 12.176C16.0853 11.8347 17.0453 11.536 18.112 11.28C19.2213 11.024 20.2667 10.832 21.248 10.704C21.9733 10.6187 22.6987 10.4693 23.424 10.256C24.1493 10 24.7253 9.70133 25.152 9.36C25.536 9.232 25.8987 9.12533 26.24 9.04C26.624 8.95466 27.008 8.93333 27.392 8.976C27.7333 9.18933 28.3093 9.296 29.12 9.296C29.9733 9.296 30.8693 9.27466 31.808 9.232C34.1973 9.01867 35.7973 8.95466 36.608 9.04C37.4613 9.12533 38.0373 9.46667 38.336 10.064C38.5493 10.8747 38.592 11.5147 38.464 11.984C38.336 12.4107 37.9093 12.6027 37.184 12.56C36.8 12.6453 36.096 12.7307 35.072 12.816C34.0907 12.8587 33.0453 12.9013 31.936 12.944C28.9067 13.2 27.2853 13.4987 27.072 13.84C26.9013 14.0107 26.752 14.1813 26.624 14.352C26.5387 14.5227 26.4107 14.7147 26.24 14.928C26.2827 15.0987 26.176 15.6533 25.92 16.592C25.7067 17.488 25.4293 18.4053 25.088 19.344C24.9173 19.8987 24.6613 20.688 24.32 21.712C23.9787 22.736 23.616 23.8027 23.232 24.912C22.8907 25.9787 22.5707 26.96 22.272 27.856C21.9733 28.7093 21.76 29.2853 21.632 29.584C21.4613 29.968 21.312 30.3947 21.184 30.864C21.0987 31.2907 21.0347 31.6107 20.992 31.824C20.3947 33.9147 19.8613 35.6853 19.392 37.136C18.9653 38.5867 18.56 39.8667 18.176 40.976C17.8347 42.0427 17.5147 43.088 17.216 44.112C16.9173 45.0933 16.5973 46.1813 16.256 47.376C16.256 47.376 16.576 47.3547 17.216 47.312C17.8987 47.2267 18.7947 47.1413 19.904 47.056C21.9093 46.8427 23.3387 46.7147 24.192 46.672C25.088 46.6293 25.6853 46.6933 25.984 46.864C26.2827 46.992 26.496 47.248 26.624 47.632C27.4773 48.784 27.584 49.5733 26.944 50C26.304 50.4267 24.7893 50.6187 22.4 50.576C20.1813 50.6613 18.4747 50.7253 17.28 50.768C16.128 50.8533 15.3173 50.96 14.848 51.088C14.4213 51.216 14.1653 51.4293 14.08 51.728C14.08 52.0693 13.9093 52.24 13.568 52.24C13.2267 52.24 12.8 52.1547 12.288 51.984ZM69.8665 53.072C69.8238 53.328 69.5678 53.392 69.0985 53.264C68.6718 53.1787 68.2878 52.88 67.9465 52.368C67.6052 51.5573 67.4345 50.8107 67.4345 50.128C67.4345 49.4453 67.4558 48.4213 67.4985 47.056C67.7545 45.5627 68.0958 43.6213 68.5225 41.232C68.9918 38.8 69.5252 36.0907 70.1225 33.104C70.7625 30.0747 71.4452 26.9173 72.1705 23.632C72.6825 21.9253 73.0878 20.368 73.3865 18.96C73.7278 17.5093 73.9838 16.336 74.1545 15.44C74.3252 14.544 74.4105 14.096 74.4105 14.096C74.4105 13.968 74.2825 14.032 74.0265 14.288C73.8132 14.5013 73.5998 14.7573 73.3865 15.056C73.1732 15.3547 73.0878 15.5893 73.1305 15.76C73.1305 15.76 72.9812 15.9733 72.6825 16.4C72.3838 16.8267 71.9998 17.4027 71.5305 18.128C71.1038 18.5547 70.5918 19.408 69.9945 20.688C69.3972 21.968 68.7358 23.1627 68.0105 24.272C67.3278 25.552 66.6025 26.9387 65.8345 28.432C65.0665 29.8827 64.3838 31.0987 63.7865 32.08C63.4025 32.6347 63.0185 33.2747 62.6345 34C62.2505 34.7253 62.0158 35.1947 61.9305 35.408C61.7598 35.8773 61.4612 36.4533 61.0345 37.136C60.6078 37.776 60.1385 38.416 59.6265 39.056C59.3705 39.44 59.1145 39.8453 58.8585 40.272C58.6025 40.656 58.3892 40.9973 58.2185 41.296C58.0905 41.552 58.0265 41.68 58.0265 41.68C58.0265 41.808 57.8132 42.192 57.3865 42.832C57.0025 43.472 56.5118 44.176 55.9145 44.944C55.3598 45.712 54.8265 46.3733 54.3145 46.928C52.8212 48.5067 51.6265 49.4453 50.7305 49.744C49.8345 50 48.8318 49.616 47.7225 48.592C47.1678 47.9093 46.7625 47.1413 46.5065 46.288C46.2505 45.392 46.1438 44.304 46.1865 43.024C46.2292 41.7013 46.3785 40.0587 46.6345 38.096C46.9332 36.6027 47.2105 35.1093 47.4665 33.616C47.7225 32.08 47.9572 30.6507 48.1705 29.328C48.4265 27.9627 48.6398 26.8107 48.8105 25.872C49.0238 24.9333 49.1945 24.3147 49.3225 24.016C49.4078 23.1627 49.3865 22.6933 49.2585 22.608C49.1305 22.5227 48.8745 22.7787 48.4905 23.376C48.3198 23.6747 47.8718 24.4213 47.1465 25.616C46.4212 26.768 45.5678 28.1973 44.5865 29.904C43.6478 31.6107 42.7092 33.4667 41.7705 35.472C40.0212 38.7147 38.5705 41.4027 37.4185 43.536C36.3092 45.6267 35.4132 47.2907 34.7305 48.528C34.0905 49.7653 33.6212 50.6827 33.3225 51.28C33.0238 51.8773 32.8105 52.2827 32.6825 52.496C32.5545 52.7093 32.4478 52.8587 32.3625 52.944C31.9785 52.944 31.5732 52.7733 31.1465 52.432C30.7625 52.1333 30.3572 51.7707 29.9305 51.344C29.8025 51.0453 29.7385 50.7467 29.7385 50.448C29.7812 50.1493 29.9305 49.7227 30.1865 49.168C30.4425 48.5707 30.8265 47.6747 31.3385 46.48C31.8932 45.3707 32.4052 44.4107 32.8745 43.6C33.3438 42.7467 33.7065 42.2347 33.9625 42.064C34.1758 41.7227 34.3678 41.3813 34.5385 41.04C34.7092 40.6987 34.8158 40.2933 34.8585 39.824C35.0718 39.568 35.3918 39.056 35.8185 38.288C36.2878 37.4773 36.7572 36.6027 37.2265 35.664C37.5678 35.1093 37.9945 34.384 38.5065 33.488C39.0612 32.592 39.6372 31.6107 40.2345 30.544C40.8318 29.4347 41.3652 28.3893 41.8345 27.408C43.7972 24.0373 45.4612 21.2 46.8265 18.896C48.1918 16.5493 49.2158 15.056 49.8985 14.416C50.1118 14.2027 50.3252 13.904 50.5385 13.52C50.7945 13.136 50.9225 12.7947 50.9225 12.496C50.9225 11.6 51.0932 10.7893 51.4345 10.064C51.8185 9.296 52.2025 8.95466 52.5865 9.04C53.0132 9.04 53.3972 9.08266 53.7385 9.168C54.0798 9.25333 54.4425 9.53067 54.8265 10C55.1678 10.512 55.4665 11.024 55.7225 11.536C55.9785 12.048 55.9572 13.072 55.6585 14.608C55.6585 15.2053 55.5945 15.888 55.4665 16.656C55.3385 17.3813 55.2105 18.064 55.0825 18.704C54.9972 19.3013 54.9332 19.7707 54.8905 20.112C54.3358 21.776 53.8238 23.6533 53.3545 25.744C52.8852 27.792 52.4585 29.8827 52.0745 32.016C51.6905 34.1067 51.3705 36.0693 51.1145 37.904C50.8585 39.696 50.6878 41.1893 50.6025 42.384C50.5598 43.536 50.6025 44.1973 50.7305 44.368C51.0292 44.5387 51.2852 44.56 51.4985 44.432C51.7118 44.304 52.0745 43.7493 52.5865 42.768C52.8852 42.256 53.2905 41.6373 53.8025 40.912C54.3572 40.144 54.8905 39.44 55.4025 38.8C55.7438 38.2027 56.2772 37.3067 57.0025 36.112C57.7278 34.9173 58.6452 33.3813 59.7545 31.504C60.9065 29.6267 62.2718 27.344 63.8505 24.656C65.4718 21.9253 67.3065 18.768 69.3545 15.184C70.3358 13.6907 71.2532 12.24 72.1065 10.832C73.0025 9.38133 73.7278 8.44267 74.2825 8.016C74.8798 7.46133 75.4985 7.33333 76.1385 7.632C76.7785 7.888 77.3332 8.44267 77.8025 9.296C78.3145 10.1493 78.5918 11.216 78.6345 12.496C78.6772 13.0933 78.5918 14.0533 78.3785 15.376C78.2078 16.6987 77.9305 18.2133 77.5465 19.92C77.1625 21.584 76.6718 23.312 76.0745 25.104C75.9465 25.8293 75.7332 26.7467 75.4345 27.856C75.1785 28.9227 74.8798 30.032 74.5385 31.184C74.1972 32.336 73.8558 33.424 73.5145 34.448C73.3012 35.856 73.0452 37.2427 72.7465 38.608C72.4905 39.9733 72.4052 40.8907 72.4905 41.36C72.1065 42.0427 71.8505 43.024 71.7225 44.304C71.5945 45.584 71.5305 46.9067 71.5305 48.272C71.3598 49.936 71.2318 51.1093 71.1465 51.792C71.0612 52.4747 70.9118 52.7947 70.6985 52.752C70.1438 52.5813 69.8665 52.688 69.8665 53.072ZM104.025 55.056C103.854 55.056 103.662 54.9707 103.449 54.8C103.236 54.672 103.022 54.48 102.809 54.224C102.51 53.9253 102.297 53.5627 102.169 53.136C102.084 52.7093 102.041 52.304 102.041 51.92C102.041 51.4507 102.041 50.8533 102.041 50.128C102.041 49.4453 101.998 48.6987 101.913 47.888C101.913 46.6507 101.892 45.3707 101.849 44.048C101.806 42.7253 101.87 41.872 102.041 41.488C101.913 40.8907 101.892 40.2507 101.977 39.568C102.105 38.8427 102.169 38.288 102.169 37.904L101.913 36.176H98.393C97.5823 36.304 96.3663 36.3467 94.745 36.304C93.1663 36.2187 91.2677 36.112 89.049 35.984L88.217 37.328C88.089 37.4987 87.7903 37.9467 87.321 38.672C86.8943 39.3973 86.5103 40.208 86.169 41.104C85.9557 41.6587 85.6997 42.2773 85.401 42.96C85.1023 43.6 84.7823 44.2613 84.441 44.944C84.1423 45.584 83.801 46.1813 83.417 46.736C82.7343 48.0587 82.201 48.976 81.817 49.488C81.4757 49.9573 81.1983 50.192 80.985 50.192C80.601 50.192 80.2597 50.1707 79.961 50.128C79.705 50.0853 79.3637 49.9147 78.937 49.616C78.0837 49.232 77.6997 48.6347 77.785 47.824C77.913 47.0133 78.4037 45.9893 79.257 44.752C79.4703 44.4533 79.6623 44.1547 79.833 43.856C80.0037 43.5573 80.089 43.408 80.089 43.408C80.089 43.3227 80.2383 42.9387 80.537 42.256C80.8783 41.5307 81.2623 40.7413 81.689 39.888C82.1583 39.0347 82.6063 38.2667 83.033 37.584C83.4597 36.8587 83.7797 36.4533 83.993 36.368C84.761 35.5147 84.697 34.704 83.801 33.936C83.5023 33.808 83.3743 33.6373 83.417 33.424C83.4597 33.168 83.609 32.9333 83.865 32.72C84.1637 32.5067 84.505 32.4 84.889 32.4C85.3157 32.1867 85.6143 32.0373 85.785 31.952C85.9983 31.8667 86.105 31.7387 86.105 31.568C86.105 31.4827 86.233 31.1413 86.489 30.544C86.7877 29.904 87.1503 29.1787 87.577 28.368C88.0037 27.5147 88.4303 26.7253 88.857 26C89.3263 25.232 89.7103 24.656 90.009 24.272C90.4783 23.0773 90.841 22.288 91.097 21.904C91.353 21.4773 91.5663 21.072 91.737 20.688C91.9503 20.4747 92.249 20.0053 92.633 19.28C93.017 18.5547 93.4223 17.8507 93.849 17.168C94.4463 16.5707 94.9797 15.9307 95.449 15.248C95.961 14.5227 96.409 13.9253 96.793 13.456C97.0063 12.9867 97.305 12.4747 97.689 11.92C98.1157 11.3653 98.5423 10.7893 98.969 10.192C99.7797 9.296 100.42 8.74133 100.889 8.528C101.401 8.272 102.084 8.336 102.937 8.72C103.918 9.14666 104.644 9.82933 105.113 10.768C105.582 11.7067 105.881 13.072 106.009 14.864C106.137 15.8453 106.265 16.9547 106.393 18.192C106.564 19.3867 106.542 20.2827 106.329 20.88C106.329 21.648 106.308 22.5867 106.265 23.696C106.265 24.8053 106.329 25.8507 106.457 26.832C106.286 27.6427 106.222 28.56 106.265 29.584C106.308 30.5653 106.329 31.248 106.329 31.632C106.329 32.016 106.308 32.6347 106.265 33.488C106.222 34.2987 106.201 35.0027 106.201 35.6C106.158 37.2213 106.116 38.5653 106.073 39.632C106.073 40.6987 106.073 41.7227 106.073 42.704C106.116 43.6427 106.137 44.752 106.137 46.032C106.222 49.4027 106.137 51.7067 105.881 52.944C105.625 54.224 105.006 54.928 104.025 55.056ZM91.033 32.656C91.033 32.656 91.5237 32.6133 92.505 32.528C93.529 32.4 94.6383 32.3573 95.833 32.4C97.241 32.272 98.4143 32.2507 99.353 32.336C100.292 32.3787 100.846 32.3573 101.017 32.272C101.486 32.3147 101.806 32.1227 101.977 31.696C102.148 31.2693 102.233 30.7147 102.233 30.032C102.148 29.0933 102.084 27.8347 102.041 26.256C101.998 24.6347 101.956 23.0133 101.913 21.392C101.913 19.728 101.934 18.3627 101.977 17.296C101.977 16.4853 101.934 15.76 101.849 15.12C101.764 14.4373 101.721 14.096 101.721 14.096C101.636 13.968 101.358 14.1387 100.889 14.608C100.42 15.0773 99.8863 15.6747 99.289 16.4C98.7343 17.1253 98.201 17.8293 97.689 18.512C97.2197 19.1947 96.8783 19.7067 96.665 20.048C96.4943 20.2613 96.1743 20.816 95.705 21.712C95.2357 22.608 94.7023 23.568 94.105 24.592C92.5263 27.1093 91.5237 29.0293 91.097 30.352C90.6703 31.6747 90.649 32.4427 91.033 32.656ZM141.654 10.832C142.123 10.832 142.571 11.0667 142.998 11.536C143.467 11.9627 143.787 12.56 143.958 13.328C143.958 13.6693 143.83 13.968 143.574 14.224C143.318 14.48 142.785 14.8427 141.974 15.312C140.907 16.1653 140.011 16.912 139.286 17.552C138.561 18.192 137.814 18.9173 137.046 19.728C136.321 20.496 135.361 21.5627 134.166 22.928L130.518 26.896L130.902 27.92C131.073 28.2187 131.243 28.688 131.414 29.328C131.585 29.968 131.755 30.4587 131.926 30.8C132.353 31.7387 132.694 32.5493 132.95 33.232C133.249 33.9147 133.526 34.64 133.782 35.408C134.038 36.176 134.379 37.2213 134.806 38.544C135.275 39.6533 135.659 40.592 135.958 41.36C136.257 42.0853 136.406 42.5333 136.406 42.704C136.406 42.704 136.619 43.2587 137.046 44.368C137.473 45.4347 137.921 46.608 138.39 47.888C139.158 49.6373 139.67 50.896 139.926 51.664C140.182 52.432 140.203 52.9653 139.99 53.264C139.819 53.5627 139.393 53.904 138.71 54.288C138.411 54.288 138.177 54.288 138.006 54.288C137.835 54.288 137.75 54.288 137.75 54.288C137.878 54.16 137.835 54.0107 137.622 53.84C137.451 53.6693 137.238 53.52 136.982 53.392C136.726 53.3067 136.534 53.328 136.406 53.456C136.235 53.456 136.129 53.3707 136.086 53.2C136.043 53.0293 135.937 52.752 135.766 52.368C135.937 52.1973 135.958 51.9627 135.83 51.664C135.745 51.3653 135.617 51.0453 135.446 50.704C135.446 50.32 135.318 49.8933 135.062 49.424C134.849 48.912 134.657 48.5067 134.486 48.208C134.486 47.8667 134.422 47.5467 134.294 47.248C134.209 46.9493 134.166 46.8 134.166 46.8C134.166 46.5867 134.102 46.3093 133.974 45.968C133.846 45.6267 133.697 45.3067 133.526 45.008C133.355 44.6667 133.206 44.2827 133.078 43.856C132.95 43.3867 132.886 43.152 132.886 43.152C132.715 42.768 132.502 42.2987 132.246 41.744C132.033 41.1467 131.585 39.9733 130.902 38.224C130.731 37.7547 130.518 37.264 130.262 36.752C130.006 36.24 129.878 35.984 129.878 35.984C129.707 35.6427 129.494 35.2587 129.238 34.832C129.025 34.3627 128.918 33.9787 128.918 33.68C128.918 33.5093 128.897 33.3173 128.854 33.104C128.854 32.848 128.769 32.72 128.598 32.72C128.598 32.72 128.534 32.6133 128.406 32.4C128.278 32.144 128.129 31.9307 127.958 31.76L127.638 30.48L126.678 31.76C126.379 31.9307 126.059 32.272 125.718 32.784C125.419 33.2533 125.099 33.6587 124.758 34C123.435 35.9627 122.262 37.648 121.238 39.056C120.214 40.464 119.531 41.2533 119.19 41.424C119.361 41.424 119.382 41.552 119.254 41.808C119.126 42.064 118.891 42.3627 118.55 42.704C118.379 42.9173 118.145 43.28 117.846 43.792C117.59 44.2613 117.377 44.6667 117.206 45.008C117.035 45.4773 116.822 45.9893 116.566 46.544C116.31 47.0987 115.755 47.9733 114.902 49.168C114.603 49.936 114.347 50.384 114.134 50.512C113.921 50.64 113.643 50.704 113.302 50.704C112.875 50.576 112.491 50.32 112.15 49.936C111.851 49.5093 111.638 49.0187 111.51 48.464C111.425 47.9093 111.489 47.3547 111.702 46.8C111.873 46.5013 112.193 45.9467 112.662 45.136C113.174 44.3253 113.707 43.4507 114.262 42.512C114.859 41.5307 115.393 40.6773 115.862 39.952C116.374 39.184 116.715 38.7147 116.886 38.544C116.886 38.544 117.014 38.352 117.27 37.968C117.569 37.584 117.889 37.2427 118.23 36.944C118.785 36.176 119.19 35.6 119.446 35.216C119.702 34.832 119.937 34.448 120.15 34.064C120.363 33.68 120.683 33.1253 121.11 32.4C121.451 32.0587 121.835 31.632 122.262 31.12C122.689 30.5653 123.051 30.1387 123.35 29.84C123.691 29.3707 124.011 28.944 124.31 28.56C124.651 28.176 124.907 27.7493 125.078 27.28C125.249 27.0667 125.398 26.8533 125.526 26.64C125.654 26.4267 125.718 26.0853 125.718 25.616C125.718 25.488 125.569 25.0187 125.27 24.208C124.971 23.3973 124.587 22.416 124.118 21.264C123.649 20.112 123.158 18.9387 122.646 17.744C122.134 16.5493 121.643 15.4827 121.174 14.544C120.747 13.5627 120.406 12.9013 120.15 12.56C119.681 11.7067 119.446 10.96 119.446 10.32C119.489 9.63733 119.83 9.18933 120.47 8.976C120.811 8.848 121.195 8.848 121.622 8.976C122.091 9.06133 122.518 9.25333 122.902 9.552C123.329 9.808 123.606 10.128 123.734 10.512C123.905 10.512 124.139 10.7893 124.438 11.344C124.779 11.8987 125.099 12.56 125.398 13.328C125.526 13.6693 125.718 14.1813 125.974 14.864C126.23 15.504 126.507 16.208 126.806 16.976C127.147 17.7013 127.425 18.3413 127.638 18.896L129.238 22.416L131.926 19.344C132.566 18.6187 133.227 17.8933 133.91 17.168C134.635 16.4 135.147 15.9093 135.446 15.696C135.787 15.4827 136.086 15.2693 136.342 15.056C136.598 14.8 136.726 14.672 136.726 14.672C136.726 14.5013 136.918 14.224 137.302 13.84C137.729 13.4133 138.219 12.9653 138.774 12.496C139.371 12.0267 139.926 11.6427 140.438 11.344C140.993 11.0027 141.398 10.832 141.654 10.832Z" fill="white"/>
</svg>
